<svg width="16" height="17" viewBox="0 0 16 17" fill="none" xmlns="http://www.w3.org/2000/svg">
<path d="M12.1374 4.34747C11.8358 4.04575 11.3464 4.0457 11.0446 4.34742C10.7429 4.6492 10.7429 5.13844 11.0446 5.44021L13.3316 7.72728H3.86379C3.43704 7.72728 3.09106 8.07326 3.09106 8.50001C3.09106 8.92676 3.43704 9.27273 3.86379 9.27273H13.3315L11.0446 11.5596C10.7429 11.8614 10.7429 12.3506 11.0446 12.6524C11.1955 12.8033 11.3933 12.8787 11.5911 12.8787C11.7888 12.8787 11.9866 12.8033 12.1374 12.6524L15.7434 9.04643C16.0452 8.7447 16.0452 8.25541 15.7434 7.95364L12.1374 4.34747Z" fill="#777777"/>
<path d="M7.4697 17C7.89645 17 8.24242 16.654 8.24242 16.2273C8.24242 15.8005 7.89645 15.4545 7.4697 15.4545H1.54545V1.54545H7.4697C7.89645 1.54545 8.24242 1.19948 8.24242 0.772727C8.24242 0.345976 7.89645 0 7.4697 0H0.772727C0.345976 0 0 0.345976 0 0.772727V16.2273C0 16.654 0.345976 17 0.772727 17H7.4697Z" fill="#777777"/>
</svg>
